<?xml version="1.0" encoding="UTF-8"?>
<svg id="Capa_1" data-name="Capa 1" xmlns="http://www.w3.org/2000/svg" xmlns:xlink="http://www.w3.org/1999/xlink" viewBox="0 0 1000 1000">
  <defs>
    <style>
      .cls-1 {
        clip-path: url(#clippath-2);
      }

      .cls-1, .cls-2, .cls-3, .cls-4 {
        fill: none;
      }

      .cls-5 {
        fill: #020303;
      }

      .cls-6 {
        fill: #fbbe5e;
      }

      .cls-3 {
        clip-path: url(#clippath);
      }

      .cls-4 {
        clip-path: url(#clippath-1);
      }
    </style>
    <clipPath id="clippath">
      <rect class="cls-2" x="-13973.22" y="-747.7" width="20505.31" height="2135.5"/>
    </clipPath>
    <clipPath id="clippath-1">
      <rect class="cls-2" x="-13973.22" y="-747.7" width="20505.31" height="2135.5"/>
    </clipPath>
    <clipPath id="clippath-2">
      <rect class="cls-2" x="-13973.22" y="-747.7" width="20505.31" height="2135.5"/>
    </clipPath>
  </defs>
  <g class="cls-3">
    <path class="cls-6" d="m276.44,497.76c6.01-44.59,45.63-64.7,87.11-58.03,46.3,7.42,94.09,30.87,126.51,65.07,17.66,18.62,30.64,38.66,39.55,62.55,4.08,11.13,6.6,22.04,5.94,33.98,0,8.9-2.3,17.21-6.75,24.93-10.09,13.06-10.31,13.36-.52.82-4.82,21.96-32.87,33.02-51.87,22.19-5.34-.74-10.46-2.3-15.14-5.27-6.23-3.34-12.02-7.79-17.36-12.39-10.39-8.83-20.11-18.62-30.94-26.86-20.41-15.43-44.82-26.64-67.89-27.97-41.92-2.3-74.5-35.76-68.64-79.02"/>
  </g>
  <g class="cls-4">
    <path class="cls-6" d="m479.23,325.77c47.49-26.49,100.25,9.87,133.78,43.78,31.68,31.98,45.78,70.64,47.27,115.09,1.26,39.4-48.82,46.23-68.64,18.62-13.21-18.48-33.98-37.17-51.64-50.46-26.19-19.59-62.55-20.7-79.84-53.94-13.21-25.15-7.12-58.47,19.07-73.09"/>
  </g>
  <g class="cls-1">
    <path class="cls-5" d="m190.37,404.79c20.55,42.89,71.6,104.33,125.1,101.51-25.6,69.23-8.01,151.07,68.71,182.53,40.81,16.77,79.91,10.39,114.57-8.31,15.14,60.33,64.33,113.08,126.74,122.43,55.21,8.24,111.6-15.29,140.46-63.89,29.16-49.05,28.57-113.82-7.42-159.16-29.24-36.73-88.37-65.89-135.49-49.27,10.98-31.39,14.02-65.22,1.04-96.91-.96-2.3-2-4.53-3.12-6.75,17.66-13.36,37.17-23.74,58.92-29.24,8.09-2,104.77-13.36,88.37,23.3-2.45,5.57,4.45,12.39,9.13,7.05,26.42-30.64-20.78-46.89-44.89-49.34-42.96-4.3-85.55,9.5-117.09,37.99-8.68-14.1-20.18-25.97-34.06-33.76,26.86-29.68,47.34-68.41,40.96-109.52-5.42-34.5-29.09-66.78-65.52-69.82-5.94-.52-5.94,7.72-1.26,9.57,79.99,31.16,55.06,111.15,19.59,166.58-.15-.07-.3-.15-.37-.22-.37-.59-.74-1.26-1.34-1.78-36.06-31.02-84.44-23.89-128.96-1.93-11.65-105.07-131.26-207.54-230.02-125.62-45.71,37.84-48.23,104.03-24.04,154.56m363.51,212.21c-9.72-83.18-85.63-172.96-175.11-172.07-.67,0-1.26.15-1.78.37,16.25-15.8,36.88-32.05,59.21-44.89.22.07.37.22.52.3,33.54,9.87,64.55,18.03,93.57,38.96,30.64,22.04,51.79,51.64,68.56,84.96,2.08,4.08,8.98,1.19,7.42-3.12-21.89-61.88-84.81-121.32-152.56-130.22,37.47-17.59,77.76-23.37,109.67-.67,2.37,1.71,4.82,1.56,6.97.52,16.1,9.13,27.53,21.44,34.8,35.84l-2.89,3.12c-3.93,4.6,2.08,10.61,6.6,6.6.07-.07.22-.15.3-.22,19.37,52.61-8.01,127.33-55.28,180.53m-42.37,55.95c38.96-25.15,71.6-65.22,93.49-103.36,5.42-9.35,10.24-19.29,14.39-29.46,47.34,2.89,90.53,7.94,123.84,47.86,34.21,41.03,33.84,102.77,5.12,146.62-29.68,45.41-87.04,63-138.38,47.71-57.13-17.07-71.31-64.41-98.46-109.37m-37.1.82c-23.08-60.18-79.32-119.76-143.65-135.49-3.64-.89-6.53,1.71-7.27,4.75,2.45-14.54,6.9-28.94,13.28-42.59.74-.96,1.26-2,1.48-3.12,6.53-13.36,14.77-25.9,24.56-37.1,3.19-3.71,6.75-7.42,10.54-11.28-1.04,3.04,0,6.83,3.86,7.94,41.7,11.43,77.91,22.56,110.19,53.35,30.87,29.38,50.16,66.48,58.62,108.04.45,2.15,2.45,3.04,4.38,2.82-22.11,23.89-48.23,42.96-75.91,53.05-.07-.15-.07-.3-.07-.37m-151.22-129.55c-.07,1.93.74,3.78,2.89,4.9,29.68,15.21,57.51,27.6,82.66,50.46,24.19,21.89,43.26,48.3,59.21,76.58-27.83,8.68-56.91,8.24-84.74-5.79-51.64-26.12-67.97-76.65-60.03-126.14m-74.2-294.58c95.94-42.29,167.17,46.97,186.91,130.52-38.73,20.92-73.68,52.24-93.86,78.13-7.35,9.42-13.65,19.51-18.92,30.13-56.99,5.27-110.11-64.26-125.18-112.56-15.36-49.2,2.15-104.62,51.05-126.22"/>
  </g>
</svg>